<svg width="120" height="60" viewBox="0 0 120 60" fill="none" xmlns="http://www.w3.org/2000/svg">
<g id="Layer 2">
<g id="Layer 1">
<path id="Vector" d="M5.50301 20.4159C5.73663 20.0372 6.05936 19.7213 6.44306 19.496C6.86302 19.259 7.33492 19.1293 7.81697 19.1183C8.87352 19.0661 11.9347 19.034 16.0645 19.0982C16.4155 19.1626 16.7479 19.3041 17.0376 19.5125C17.3273 19.7209 17.5671 19.9911 17.7397 20.3034C17.9212 20.6678 18.0156 21.0694 18.0156 21.4765C18.0156 21.8836 17.9212 22.2851 17.7397 22.6495L12.9189 31.6603L9.25517 38.1322C9.15072 38.2889 7.95758 40.1408 8.25486 41.575C8.32092 41.901 8.44182 42.2134 8.6124 42.499C8.73414 42.7423 8.91684 42.9499 9.14268 43.1016C9.38754 43.2657 9.67547 43.3538 9.97025 43.3547C14.4777 43.3868 17.7477 43.3868 18.4548 43.3868C18.823 43.3958 19.1872 43.3086 19.5113 43.1337C19.8437 42.9555 20.1214 42.6903 20.3148 42.3664C21.1879 40.7595 22.0811 39.1285 22.9943 37.4734C24.1915 35.3174 25.3967 33.2003 26.6099 31.122L37.6735 51.1081C37.8752 51.5851 37.9721 52.1 37.9575 52.6177C37.943 53.1354 37.8173 53.644 37.5892 54.109C37.1857 54.8626 36.5016 55.427 35.685 55.6797L14.6142 55.7159C14.1322 55.7434 13.6543 55.6137 13.2524 55.3463C12.924 55.1325 12.6546 54.8397 12.469 54.4946C5.71995 42.7039 0.818843 34.0145 0.37694 32.9941C0.196283 32.5946 0.074497 32.1711 0.0153836 31.7367C-0.0297891 31.2143 0.0247425 30.688 0.176075 30.186L2.54628 25.5098L5.50301 20.4159Z" fill="white"/>
<path id="Vector_2" d="M52.5375 21.5207L40.5901 1.0927C40.3525 0.770589 40.0483 0.503409 39.6982 0.309332C39.3532 0.12538 38.9719 0.0197627 38.5814 0L17.9325 0.34147C17.6443 0.335715 17.3578 0.386203 17.0889 0.49011C16.4405 0.794057 15.9361 1.3388 15.6828 2.00865C15.5398 2.40601 15.4764 2.82767 15.4964 3.24954C15.5164 3.6714 15.6193 4.08518 15.7993 4.46723L33.7968 37.0515C39.3849 36.9591 43.4022 36.8748 44.8243 36.9591C45.4633 37.0152 46.1057 36.8986 46.6843 36.6217C47.1859 36.3607 47.6141 35.9781 47.9297 35.5089L52.8227 24.381C53.0392 23.8492 53.1005 23.2669 52.9995 22.7017C52.9269 22.2809 52.7697 21.8791 52.5375 21.5207ZM44.5029 31.1622C44.3428 31.3727 44.1385 31.5454 43.9044 31.6684C43.7666 31.7333 43.6206 31.7792 43.4705 31.8049C39.7103 31.9536 36.8781 31.6764 35.7452 31.2867C35.2574 31.1148 34.7899 30.8898 34.3512 30.6158C33.8667 30.2881 33.4254 29.9007 33.0376 29.4629C32.214 28.5228 27.2125 20.0865 20.596 8.33589C25.252 8.46846 28.731 8.58898 30.2857 8.60505C30.8919 8.5975 31.4912 8.73525 32.0332 9.00678C32.7054 9.35779 33.2703 9.88383 33.6683 10.5293C34.5923 11.9274 38.8144 19.2027 44.4427 29.2499C44.6216 29.5358 44.7224 29.8635 44.7351 30.2004C44.7478 30.5374 44.6719 30.8717 44.515 31.1702L44.5029 31.1622Z" fill="white"/>
<path id="Vector_3" d="M51.6015 52.9721H45.5755L44.5109 55.7199H39.0635L46.0014 39.944H51.26L58.2019 55.7199H52.666L51.6015 52.9721ZM50.1271 49.1396L48.5845 45.1705L47.0458 49.1396H50.1271Z" fill="white"/>
<path id="Vector_4" d="M58.3867 39.8074C58.3867 38.3451 59.5919 37.2162 61.468 37.2162C63.3441 37.2162 64.5533 38.2527 64.5533 39.719C64.5533 41.2737 63.3481 42.3986 61.468 42.3986C59.5879 42.3986 58.3867 41.2737 58.3867 39.8074ZM58.909 43.3908H64.031V55.7199H58.909V43.3908Z" fill="white"/>
<path id="Vector_5" d="M84.5996 57.7044C84.0257 58.3618 83.3126 58.8832 82.5121 59.2306C81.7116 59.578 80.8438 59.7429 79.9717 59.7131C77.1596 59.7131 75.4161 58.8333 72.5598 55.8605C68.5666 55.0249 65.8268 51.8914 65.8268 47.8259C65.8268 43.0493 69.6111 39.5784 74.7813 39.5784C79.9516 39.5784 83.7359 43.0493 83.7359 47.8259C83.76 49.4552 83.2811 51.0523 82.3645 52.3995C81.4479 53.7468 80.1382 54.7786 78.6138 55.3543C78.7941 55.5678 79.0204 55.7377 79.2758 55.8511C79.5312 55.9645 79.8089 56.0186 80.0882 56.0091C80.5034 55.9931 80.9113 55.895 81.2885 55.7205C81.6656 55.5461 82.0045 55.2988 82.2856 54.9928L84.5996 57.7044ZM71.222 47.8299C71.222 50.2885 72.8088 51.7749 74.7813 51.7749C76.7538 51.7749 78.3407 50.2885 78.3407 47.8299C78.3407 45.3713 76.7538 43.889 74.7813 43.889C72.8088 43.889 71.222 45.3954 71.222 47.8299Z" fill="white"/>
<path id="Vector_6" d="M98.8891 51.7066V55.7239H85.6923V39.944H98.5918V43.9613H90.9589V45.7972H97.6718V49.6257H90.9509V51.6986L98.8891 51.7066Z" fill="white"/>
<path id="Vector_7" d="M115.127 55.7199L115.083 48.529L111.636 54.3018H109.286L105.839 48.778V55.7199H100.954V39.944H105.353L110.523 48.3482L115.557 39.944H119.956L120 55.7199H115.127Z" fill="white"/>
</g>
</g>
</svg>
