<svg width="152" height="77" viewBox="0 0 152 77" fill="none" xmlns="http://www.w3.org/2000/svg">
<g id="Layer 2">
<g id="Layer 1">
<path id="Vector" d="M7.2286 26.5844C7.52341 26.1064 7.93067 25.7079 8.41487 25.4235C8.94484 25.1245 9.54034 24.9608 10.1487 24.9469C11.482 24.881 15.3449 24.8405 20.5564 24.9216C20.9994 25.0028 21.4189 25.1813 21.7844 25.4443C22.15 25.7073 22.4526 26.0482 22.6705 26.4424C22.8995 26.9023 23.0187 27.409 23.0187 27.9227C23.0187 28.4365 22.8995 28.9432 22.6705 29.4031L16.587 40.7741L11.9636 48.9411C11.8318 49.1388 10.3261 51.4759 10.7012 53.2857C10.7846 53.6971 10.9372 54.0914 11.1524 54.4517C11.3061 54.7587 11.5366 55.0207 11.8216 55.2121C12.1306 55.4193 12.494 55.5304 12.8659 55.5315C18.554 55.5721 22.6806 55.5721 23.5728 55.5721C24.0375 55.5834 24.497 55.4733 24.9061 55.2527C25.3256 55.0278 25.6761 54.6931 25.92 54.2844C27.0218 52.2566 28.1489 50.1983 29.3014 48.1097C30.8121 45.389 32.333 42.7174 33.864 40.0947L47.8256 65.3158C48.0801 65.9178 48.2023 66.5674 48.184 67.2208C48.1656 67.8742 48.0071 68.5159 47.7191 69.1027C47.21 70.0537 46.3466 70.7659 45.3161 71.0849L18.7263 71.1305C18.1181 71.1652 17.515 71.0016 17.0078 70.6641C16.5934 70.3944 16.2535 70.0248 16.0192 69.5894C7.50236 54.7102 1.3175 43.7448 0.759852 42.4571C0.531875 41.9531 0.37819 41.4186 0.303593 40.8704C0.246588 40.2111 0.315403 39.5471 0.506375 38.9135L3.49741 33.0126L7.2286 26.5844Z" fill="#002244"/>
<path id="Vector_2" d="M66.5829 27.9784L51.5061 2.19972C51.2062 1.79323 50.8224 1.45607 50.3806 1.21116C49.9452 0.979022 49.464 0.84574 48.9713 0.820801L22.9138 1.25171C22.5501 1.24445 22.1885 1.30816 21.8492 1.43929C21.0309 1.82285 20.3944 2.51027 20.0748 3.35558C19.8943 3.85702 19.8143 4.38913 19.8396 4.92149C19.8648 5.45385 19.9947 5.97602 20.2219 6.45814L42.9334 47.5773C49.9852 47.4607 55.0547 47.3542 56.8494 47.4607C57.6558 47.5314 58.4664 47.3843 59.1966 47.0348C59.8296 46.7055 60.3699 46.2227 60.7681 45.6306L66.9428 31.5879C67.216 30.9168 67.2933 30.1821 67.1659 29.4688C67.0742 28.9377 66.8759 28.4307 66.5829 27.9784ZM56.4438 40.1453C56.2418 40.4109 55.9839 40.629 55.6884 40.7841C55.5145 40.866 55.3304 40.924 55.1409 40.9564C50.3958 41.144 46.8218 40.7942 45.3922 40.3025C44.7766 40.0855 44.1867 39.8016 43.633 39.4559C43.0217 39.0423 42.4647 38.5534 41.9753 38.0009C40.936 36.8146 34.6245 26.1686 26.2749 11.3401C32.1505 11.5074 36.5407 11.6595 38.5027 11.6798C39.2677 11.6703 40.0239 11.8441 40.7079 12.1867C41.5562 12.6297 42.269 13.2935 42.7712 14.1081C43.9372 15.8723 49.2653 25.0533 56.3678 37.7322C56.5935 38.0929 56.7207 38.5065 56.7367 38.9317C56.7528 39.3568 56.657 39.7788 56.459 40.1554L56.4438 40.1453Z" fill="#002244"/>
<path id="Vector_3" d="M65.4017 67.6681H57.7973L56.4539 71.1357H49.5796L58.3347 51.2275H64.9707L73.7309 71.1357H66.7451L65.4017 67.6681ZM63.5411 62.8317L61.5944 57.823L59.6528 62.8317H63.5411Z" fill="#002244"/>
<path id="Vector_4" d="M73.9642 51.055C73.9642 49.2097 75.4851 47.7852 77.8526 47.7852C80.2201 47.7852 81.746 49.0931 81.746 50.9435C81.746 52.9054 80.2251 54.3249 77.8526 54.3249C75.48 54.3249 73.9642 52.9054 73.9642 51.055ZM74.6233 55.5771H81.087V71.1355H74.6233V55.5771Z" fill="#002244"/>
<path id="Vector_5" d="M107.043 73.6397C106.319 74.4693 105.419 75.1271 104.409 75.5656C103.399 76.004 102.303 76.212 101.203 76.1745C97.6542 76.1745 95.454 75.0642 91.8496 71.3128C86.8105 70.2583 83.353 66.304 83.353 61.1737C83.353 55.146 88.1285 50.7659 94.6531 50.7659C101.178 50.7659 105.953 55.146 105.953 61.1737C105.984 63.2297 105.379 65.2452 104.223 66.9453C103.066 68.6454 101.413 69.9474 99.4894 70.674C99.7169 70.9434 100.002 71.1578 100.325 71.3009C100.647 71.444 100.998 71.5122 101.35 71.5003C101.874 71.48 102.389 71.3563 102.865 71.1361C103.341 70.916 103.768 70.6039 104.123 70.2177L107.043 73.6397ZM90.1614 61.1787C90.1614 64.2813 92.1639 66.157 94.6531 66.157C97.1422 66.157 99.1447 64.2813 99.1447 61.1787C99.1447 58.0762 97.1422 56.2055 94.6531 56.2055C92.1639 56.2055 90.1614 58.1066 90.1614 61.1787Z" fill="#002244"/>
<path id="Vector_6" d="M125.075 66.0712V71.1407H108.422V51.2275H124.7V56.2971H115.068V58.6139H123.539V63.4452H115.058V66.061L125.075 66.0712Z" fill="#002244"/>
<path id="Vector_7" d="M145.567 71.1357L145.511 62.0612L141.161 69.3461H138.195L133.846 62.3755V71.1357H127.681V51.2275H133.232L139.757 61.833L146.109 51.2275H151.66L151.716 71.1357H145.567Z" fill="#002244"/>
</g>
</g>
</svg>
